<?xml version="1.0" standalone="no"?>
<!DOCTYPE svg PUBLIC "-//W3C//DTD SVG 20010904//EN"
 "http://www.w3.org/TR/2001/REC-SVG-20010904/DTD/svg10.dtd">
<svg version="1.0" xmlns="http://www.w3.org/2000/svg"
 width="256.000000pt" height="256.000000pt" viewBox="0 0 256.000000 256.000000"
 preserveAspectRatio="xMidYMid meet">
<metadata>
Created by potrace 1.14, written by Peter Selinger 2001-2017
</metadata>
<g transform="translate(0.000000,256.000000) scale(0.100000,-0.100000)"
fill="#000000" stroke="none">
<path d="M821 1646 c-462 -462 -553 -558 -553 -581 -1 -21 21 -49 98 -126 128
-128 127 -128 245 -12 l89 87 0 -137 c0 -85 -4 -137 -10 -137 -6 0 -19 -9 -30
-20 -17 -17 -20 -33 -20 -104 l0 -84 -34 -12 c-50 -16 -116 -78 -141 -132 -19
-40 -32 -53 -74 -74 -57 -29 -115 -90 -131 -140 l-12 -34 -94 0 c-81 0 -97 -3
-114 -20 -11 -11 -20 -29 -20 -40 0 -11 9 -29 20 -40 20 -20 33 -20 990 -20
957 0 970 0 990 20 11 11 20 24 20 30 0 6 27 10 60 10 33 0 60 -4 60 -10 0
-27 41 -50 90 -50 55 0 90 23 90 60 0 22 -33 60 -52 60 -7 1 -22 20 -33 43
-12 24 -36 52 -57 66 l-38 24 0 341 0 340 58 -57 c83 -82 92 -81 214 41 80 80
98 104 98 128 0 25 -72 101 -553 582 -430 430 -558 552 -577 552 -19 0 -147
-122 -579 -554z m1076 -88 l493 -493 -42 -42 -42 -43 -441 440 c-341 340 -446
440 -465 440 -19 0 -124 -100 -465 -440 l-440 -440 -43 42 -42 43 492 492
c271 271 495 493 498 493 3 0 226 -222 497 -492z m-557 -1038 c11 -11 20 -29
20 -40 0 -26 -34 -60 -60 -60 -11 0 -29 9 -40 20 -11 11 -20 29 -20 40 0 11 9
29 20 40 11 11 29 20 40 20 11 0 29 -9 40 -20z m-700 -250 l0 -130 -130 0
c-72 0 -130 4 -130 9 0 16 60 61 88 66 15 3 38 9 52 13 24 7 33 24 45 84 5 28
50 88 66 88 5 0 9 -58 9 -130z"/>
<path d="M2440 120 c-11 -11 -20 -29 -20 -40 0 -26 34 -60 60 -60 26 0 60 34
60 60 0 26 -34 60 -60 60 -11 0 -29 -9 -40 -20z"/>
</g>
</svg>
